<svg width="479" height="108" viewBox="0 0 479 108" fill="none" xmlns="http://www.w3.org/2000/svg">
  <path
    d="M69.8485 107.602L79.3441 86.9668L64.6963 81.8112L93.9919 56.02L82.2789 76.6425L96.9267 81.7981L69.8485 107.602Z"
    fill="url(#paint0_linear_1111_1776)" />
  <path
    d="M114.822 53.6577C112.357 40.3575 100.774 30.5684 87.0004 30.5684C74.7657 30.5684 64.1222 38.2822 60.2352 49.6507C58.8005 49.3113 57.3526 49.1417 55.8787 49.1417C45.3918 49.1417 36.8613 57.6778 36.8613 68.1718C36.8613 78.6527 45.1961 87.0061 55.8787 87.2019H58.37C58.3048 86.4318 58.2526 85.6487 58.2526 84.8655C58.2526 83.8736 58.3178 82.8947 58.4222 81.9288H55.9309C48.1961 81.7722 42.1309 75.729 42.1309 68.1587C42.1309 60.5754 48.2874 54.4147 55.8787 54.4147C57.6526 54.4147 59.3744 54.7541 61.0439 55.4328L63.9005 56.5814L64.6048 53.5925C67.057 43.1507 76.2787 35.8545 87.0135 35.8545C98.8309 35.8545 108.666 44.7039 109.918 56.4509L110.166 58.8133H112.553C112.631 58.8133 112.696 58.8133 112.774 58.8003C119.113 58.8394 124.253 64.0212 124.253 70.3645C124.253 76.6296 119.466 81.9288 113.779 81.9288H110.857C110.961 82.8947 111.027 83.8736 111.027 84.8655C111.027 85.6617 110.974 86.4318 110.909 87.2019H113.753C122.283 87.2019 129.496 79.488 129.496 70.3645C129.509 61.8023 123.105 54.728 114.822 53.6577Z"
    fill="url(#paint1_linear_1111_1776)" />
  <path
    d="M81.1703 27.9579C78.992 28.1145 72.0398 28.8976 65.9485 34.4579C61.0442 38.9348 59.2963 44.1556 58.6833 46.4137C56.6746 46.1526 51.7703 45.7741 46.3833 48.2932C40.2398 51.1647 37.279 56.0201 36.3398 57.7299C36.4963 56.4247 36.8876 51.6215 33.7442 47.0141C31.3442 43.503 28.1485 41.9498 26.792 41.3886C31.1616 37.8253 38.2963 32.9438 48.1442 29.7852C62.5442 25.1516 74.9746 26.7309 81.1703 27.9579Z"
    fill="url(#paint2_linear_1111_1776)" />
  <path
    d="M64.3435 8.99297C53.1522 6.74799 44.0478 3.18474 37.3826 0C33.8348 5.70382 29.2565 12.1386 23.387 18.7169C15.2348 27.8795 6.96522 34.6667 0 39.5743C3.11739 40.4357 7.13478 41.2711 11.8565 41.5321C14.113 41.6496 16.2261 41.6365 18.1696 41.5191V67.5452C17.113 69.5291 16.0565 71.5 15 73.4839C15.3261 73.8363 16.3043 75.6506 19.4087 75.6506C23.1652 75.6506 24.4956 73.758 24.7435 73.4839L21.5739 67.5843V41.2058C22.5391 41.0884 23.4522 40.9578 24.287 40.8012C28.1217 36.99 33.4435 32.6697 40.513 29.2239C61.4348 19.0432 82.2 24.1205 88.9435 26.0783C91.6044 21.6275 93.1826 16.498 93.7304 11.0291C86.1652 11.4859 76.0304 11.3293 64.3435 8.99297Z"
    fill="url(#paint3_linear_1111_1776)" />
  <path
    d="M153.608 53.584C152.243 53.0293 150.963 52.4107 149.768 51.728C148.616 51.0453 147.613 50.2347 146.76 49.296C145.907 48.3147 145.245 47.184 144.776 45.904C144.307 44.5813 144.072 43.024 144.072 41.232C144.072 39.0133 144.456 37.072 145.224 35.408C145.992 33.7013 147.059 32.272 148.424 31.12C149.832 29.968 151.517 29.0933 153.48 28.496C155.443 27.8987 157.619 27.6 160.008 27.6C161.971 27.6 163.976 27.8133 166.024 28.24C168.072 28.624 170.525 29.3067 173.384 30.288L169.032 38.096C166.259 36.7733 163.336 36.112 160.264 36.112C159.667 36.112 159.048 36.176 158.408 36.304C157.768 36.432 157.192 36.6667 156.68 37.008C156.168 37.3067 155.741 37.7333 155.4 38.288C155.059 38.8427 154.888 39.568 154.888 40.464C154.888 41.1893 155.016 41.7867 155.272 42.256C155.571 42.7253 155.933 43.1307 156.36 43.472C156.787 43.8133 157.277 44.112 157.832 44.368C158.387 44.5813 158.941 44.7947 159.496 45.008L163.272 46.48C164.893 47.12 166.365 47.8027 167.688 48.528C169.053 49.2107 170.205 50.064 171.144 51.088C172.083 52.0693 172.808 53.2853 173.32 54.736C173.832 56.1867 174.088 58 174.088 60.176C174.088 62.352 173.683 64.336 172.872 66.128C172.104 67.92 170.952 69.456 169.416 70.736C167.923 71.9733 166.067 72.9547 163.848 73.68C161.629 74.3627 159.091 74.704 156.232 74.704C154.909 74.704 153.693 74.6613 152.584 74.576C151.475 74.4907 150.387 74.3413 149.32 74.128C148.296 73.9147 147.251 73.6587 146.184 73.36C145.16 73.0613 144.051 72.6773 142.856 72.208L145.032 63.248C146.781 63.7173 148.488 64.144 150.152 64.528C151.859 64.8693 153.587 65.04 155.336 65.04C157.683 65.04 159.475 64.7413 160.712 64.144C161.949 63.504 162.675 62.3093 162.888 60.56C162.973 59.664 162.867 58.9173 162.568 58.32C162.269 57.7227 161.843 57.232 161.288 56.848C160.733 56.4213 160.115 56.08 159.432 55.824C158.749 55.568 158.067 55.312 157.384 55.056L153.608 53.584ZM180.343 48.592H176.375V40.528H180.343V31.44H189.943V40.528H197.879L193.399 48.592H189.623L189.943 50.64V60.688C189.943 61.7973 190.007 62.6933 190.135 63.376C190.306 64.0587 190.54 64.592 190.839 64.976C191.18 65.36 191.586 65.6373 192.055 65.808C192.567 65.936 193.143 66 193.783 66C194.252 66 194.828 65.9573 195.511 65.872C196.194 65.744 196.919 65.616 197.687 65.488L198.199 69.776L198.583 73.616C197.346 73.872 196.215 74.064 195.191 74.192C194.167 74.32 193.122 74.384 192.055 74.384C188.087 74.384 185.143 73.4667 183.223 71.632C181.303 69.7973 180.343 66.768 180.343 62.544V48.592ZM201.521 40.592H211.249V58C211.249 59.4933 211.377 60.752 211.633 61.776C211.889 62.7573 212.273 63.5467 212.785 64.144C213.297 64.6987 213.916 65.104 214.641 65.36C215.409 65.5733 216.305 65.68 217.329 65.68C218.566 65.68 219.676 65.616 220.657 65.488L220.529 64.336V40.592H230.257V72.208C228.678 72.7627 226.78 73.2533 224.561 73.68C222.385 74.1067 220.145 74.32 217.841 74.32C215.665 74.32 213.574 74.1493 211.569 73.808C209.606 73.4667 207.878 72.7413 206.385 71.632C204.892 70.5227 203.697 68.9227 202.801 66.832C201.948 64.6987 201.521 61.84 201.521 58.256V40.592ZM263.595 29.136V73.104C262.059 73.4453 260.565 73.7013 259.115 73.872C257.664 74.0427 256.341 74.1707 255.147 74.256C253.952 74.3413 252.928 74.384 252.075 74.384C251.221 74.384 250.645 74.384 250.347 74.384C247.445 74.384 244.992 73.936 242.987 73.04C241.024 72.144 239.424 70.928 238.187 69.392C236.992 67.856 236.117 66.0853 235.563 64.08C235.008 62.032 234.731 59.856 234.731 57.552C234.731 54.608 235.093 52.0907 235.819 50C236.587 47.8667 237.632 46.1173 238.955 44.752C240.32 43.3867 241.92 42.384 243.755 41.744C245.632 41.0613 247.701 40.72 249.963 40.72C250.347 40.72 250.773 40.7627 251.243 40.848C251.755 40.8907 252.224 40.9547 252.651 41.04C253.12 41.1253 253.547 41.232 253.931 41.36C254.315 41.4453 254.613 41.552 254.827 41.68V37.904L255.019 37.072H249.259L253.547 29.136H263.595ZM251.371 65.808C252.011 65.808 252.629 65.7867 253.227 65.744C253.824 65.7013 254.357 65.6373 254.827 65.552V49.168C254.528 49.1253 254.187 49.0613 253.803 48.976C253.461 48.8907 253.056 48.8267 252.587 48.784C252.16 48.7413 251.669 48.72 251.115 48.72C249.109 48.72 247.424 49.4027 246.059 50.768C244.693 52.1333 244.011 54.3947 244.011 57.552C244.011 59.1307 244.203 60.4533 244.587 61.52C244.971 62.5867 245.483 63.44 246.123 64.08C246.805 64.72 247.595 65.168 248.491 65.424C249.387 65.68 250.347 65.808 251.371 65.808ZM266.211 40.592H276.963L283.043 65.552L290.019 40.592H300.067L292.707 65.104C291.896 67.792 291.085 70.48 290.275 73.168C289.507 75.8133 288.739 78.416 287.971 80.976C287.459 82.5973 286.84 83.9413 286.115 85.008C285.432 86.0747 284.621 86.928 283.683 87.568C282.787 88.208 281.784 88.656 280.675 88.912C279.565 89.168 278.349 89.296 277.027 89.296C275.96 89.296 274.787 89.168 273.507 88.912C272.269 88.6987 270.84 88.336 269.219 87.824L272.931 80.912C273.528 80.9973 274.04 81.0613 274.467 81.104C274.936 81.1893 275.299 81.232 275.555 81.232C275.981 81.232 276.408 81.1893 276.835 81.104C277.261 81.0613 277.667 80.912 278.051 80.656C278.477 80.4 278.861 79.9733 279.203 79.376C279.587 78.8213 279.928 78.032 280.227 77.008L280.675 75.088L281.571 74H275.939L266.211 40.592ZM311.605 53.584C310.24 53.0293 308.96 52.4107 307.765 51.728C306.613 51.0453 305.611 50.2347 304.757 49.296C303.904 48.3147 303.243 47.184 302.773 45.904C302.304 44.5813 302.069 43.024 302.069 41.232C302.069 39.0133 302.453 37.072 303.221 35.408C303.989 33.7013 305.056 32.272 306.421 31.12C307.829 29.968 309.515 29.0933 311.477 28.496C313.44 27.8987 315.616 27.6 318.005 27.6C319.968 27.6 321.973 27.8133 324.021 28.24C326.069 28.624 328.523 29.3067 331.382 30.288L327.029 38.096C324.256 36.7733 321.333 36.112 318.261 36.112C317.664 36.112 317.045 36.176 316.405 36.304C315.765 36.432 315.189 36.6667 314.677 37.008C314.165 37.3067 313.739 37.7333 313.397 38.288C313.056 38.8427 312.885 39.568 312.885 40.464C312.885 41.1893 313.013 41.7867 313.269 42.256C313.568 42.7253 313.931 43.1307 314.357 43.472C314.784 43.8133 315.275 44.112 315.829 44.368C316.384 44.5813 316.939 44.7947 317.493 45.008L321.269 46.48C322.891 47.12 324.363 47.8027 325.685 48.528C327.051 49.2107 328.203 50.064 329.141 51.088C330.08 52.0693 330.805 53.2853 331.317 54.736C331.829 56.1867 332.085 58 332.085 60.176C332.085 62.352 331.68 64.336 330.869 66.128C330.101 67.92 328.949 69.456 327.413 70.736C325.92 71.9733 324.064 72.9547 321.845 73.68C319.627 74.3627 317.088 74.704 314.229 74.704C312.907 74.704 311.691 74.6613 310.581 74.576C309.472 74.4907 308.384 74.3413 307.317 74.128C306.293 73.9147 305.248 73.6587 304.181 73.36C303.157 73.0613 302.048 72.6773 300.853 72.208L303.029 63.248C304.779 63.7173 306.485 64.144 308.149 64.528C309.856 64.8693 311.584 65.04 313.333 65.04C315.68 65.04 317.472 64.7413 318.709 64.144C319.947 63.504 320.672 62.3093 320.885 60.56C320.971 59.664 320.864 58.9173 320.565 58.32C320.267 57.7227 319.84 57.232 319.285 56.848C318.731 56.4213 318.112 56.08 317.429 55.824C316.747 55.568 316.064 55.312 315.381 55.056L311.605 53.584ZM338.341 48.592H334.373V40.528H338.341V31.44H347.941V40.528H355.877L351.397 48.592H347.621L347.941 50.64V60.688C347.941 61.7973 348.005 62.6933 348.133 63.376C348.303 64.0587 348.538 64.592 348.837 64.976C349.178 65.36 349.583 65.6373 350.053 65.808C350.565 65.936 351.141 66 351.781 66C352.25 66 352.826 65.9573 353.509 65.872C354.191 65.744 354.917 65.616 355.685 65.488L356.197 69.776L356.581 73.616C355.343 73.872 354.213 74.064 353.189 74.192C352.165 74.32 351.119 74.384 350.053 74.384C346.085 74.384 343.141 73.4667 341.221 71.632C339.301 69.7973 338.341 66.768 338.341 62.544V48.592ZM374.239 40.208C376.457 40.208 378.527 40.528 380.447 41.168C382.367 41.7653 384.009 42.7467 385.375 44.112C386.783 45.4773 387.871 47.248 388.639 49.424C389.449 51.6 389.855 54.224 389.855 57.296C389.855 60.368 389.449 62.992 388.639 65.168C387.871 67.344 386.783 69.1147 385.375 70.48C384.009 71.8453 382.367 72.848 380.447 73.488C378.527 74.0853 376.457 74.384 374.239 74.384C371.977 74.384 369.887 74.0853 367.967 73.488C366.089 72.848 364.447 71.8453 363.039 70.48C361.673 69.1147 360.585 67.344 359.775 65.168C359.007 62.992 358.623 60.368 358.623 57.296C358.623 54.2667 359.007 51.6853 359.775 49.552C360.585 47.376 361.673 45.6053 363.039 44.24C364.447 42.832 366.089 41.808 367.967 41.168C369.887 40.528 371.977 40.208 374.239 40.208ZM374.239 66C376.159 66 377.652 65.36 378.719 64.08C379.828 62.8 380.383 60.5387 380.383 57.296C380.383 54.0533 379.828 51.792 378.719 50.512C377.652 49.1893 376.159 48.528 374.239 48.528C372.361 48.528 370.847 49.2107 369.695 50.576C368.585 51.8987 368.031 54.1387 368.031 57.296C368.031 60.5387 368.585 62.8 369.695 64.08C370.804 65.36 372.319 66 374.239 66ZM407.036 41.744C407.548 41.4027 408.252 41.0827 409.148 40.784C410.086 40.4427 411.132 40.272 412.284 40.272C413.265 40.272 414.054 40.3147 414.652 40.4C415.292 40.4853 415.612 40.5067 415.612 40.464V48.976C414.63 48.8907 413.67 48.8693 412.732 48.912C411.921 48.9973 411.068 49.1467 410.172 49.36C409.318 49.5307 408.529 49.872 407.804 50.384C406.95 50.9813 406.332 51.792 405.948 52.816C405.606 53.84 405.436 55.248 405.436 57.04V74.064H395.836V48.656H390.652L394.748 40.528H405.436V43.024C405.649 42.8533 405.841 42.6827 406.012 42.512C406.182 42.384 406.353 42.256 406.524 42.128C406.694 41.9573 406.865 41.8293 407.036 41.744ZM421.449 48.528H416.137L420.361 40.592H429.641L430.409 44.176C431.39 43.0667 432.585 42.1707 433.993 41.488C435.443 40.7627 437.107 40.4 438.985 40.4C443.379 40.4 446.515 42 448.393 45.2C449.459 43.7067 450.718 42.5333 452.169 41.68C453.619 40.8267 455.433 40.4 457.609 40.4C461.449 40.4 464.243 41.424 465.993 43.472C467.785 45.4773 468.681 48.6987 468.681 53.136V74H458.953V54.864C458.953 52.816 458.611 51.3653 457.929 50.512C457.289 49.6587 456.158 49.232 454.537 49.232C453.854 49.232 453.214 49.3173 452.617 49.488C452.062 49.616 451.571 49.8933 451.145 50.32C450.761 50.704 450.441 51.2587 450.185 51.984C449.971 52.6667 449.865 53.584 449.865 54.736V74H440.137V54.736C440.137 52.6027 439.753 51.152 438.985 50.384C438.259 49.616 437.235 49.232 435.913 49.232C435.273 49.232 434.675 49.296 434.121 49.424C433.566 49.552 433.054 49.808 432.585 50.192C432.158 50.576 431.817 51.1307 431.561 51.856C431.305 52.5813 431.177 53.5413 431.177 54.736V74H421.449V48.528Z"
    fill="#384661" />
  <defs>
    <linearGradient id="paint0_linear_1111_1776" x1="64.6963" y1="56.02" x2="96.9267" y2="56.02"
      gradientUnits="userSpaceOnUse">
      <stop stop-color="#00DDFF" />
      <stop offset="1" stop-color="#FF00D4" />
    </linearGradient>
    <linearGradient id="paint1_linear_1111_1776" x1="36.8613" y1="30.5684" x2="129.496" y2="30.5684"
      gradientUnits="userSpaceOnUse">
      <stop stop-color="#00DDFF" />
      <stop offset="1" stop-color="#FF00D4" />
    </linearGradient>
    <linearGradient id="paint2_linear_1111_1776" x1="26.792" y1="26.6729" x2="81.1703" y2="26.6729"
      gradientUnits="userSpaceOnUse">
      <stop stop-color="#00DDFF" />
      <stop offset="1" stop-color="#FF00D4" />
    </linearGradient>
    <linearGradient id="paint3_linear_1111_1776" x1="0" y1="0" x2="93.7304" y2="0" gradientUnits="userSpaceOnUse">
      <stop stop-color="#00DDFF" />
      <stop offset="1" stop-color="#FF00D4" />
    </linearGradient>
  </defs>
</svg>